<svg xmlns="http://www.w3.org/2000/svg" viewBox="0 0 1000 1000" xml:space="preserve"><switch><g><circle fill="#382B73" cx="500" cy="500" r="398"/><circle fill="#473080" cx="500" cy="500" r="344.3"/><path fill="#382B73" d="M640 433.8V324c0-8.3-6.7-15-15-15H370c-8.3 0-15 6.7-15 15v113.7l-54.5 41.9v220.5c0 4.9 2.4 9.3 6 12 .3.3.7.5 1 .7 0 0 .1 0 .1.1.3.2.7.4 1 .6.1 0 .2.1.2.1.3.2.6.3 1 .4.1 0 .3.1.4.1l.9.3c.2.1.4.1.6.1.3.1.5.1.8.2.3.1.5.1.8.1.2 0 .4.1.6.1.5 0 1 .1 1.4.1h369c.5 0 1 0 1.4-.1.2 0 .4-.1.6-.1.3 0 .5-.1.8-.1.3-.1.5-.1.8-.2.2 0 .4-.1.6-.1l.9-.3c.1 0 .3-.1.4-.1.3-.1.7-.3 1-.4.1 0 .2-.1.2-.1.4-.2.7-.4 1-.6 0 0 .1 0 .1-.1.4-.2.7-.5 1-.7 3.6-2.7 6-7.1 6-12V479.6L640 433.8z"/><g><path fill="#1CAEE4" d="M684.5 695.1h-369c-8.3 0-15-6.7-15-15V459.6h399v220.5c0 8.3-6.7 15-15 15z"/><path fill="#177BC0" d="M500 541.7 305.5 691.2c2.7 2.4 6.2 3.8 10 3.8h369c3.8 0 7.3-1.5 10-3.8L500 541.7z"/><path fill="#A72973" d="m500 613 199.5-153.4h-399z"/><path fill="#EF5A9D" d="M500 306.2 300.5 459.6h399z"/><path fill="#FFF" d="M355 501.5 500 613l140-107.7V304c0-8.3-6.7-15-15-15H370c-8.3 0-15 6.7-15 15v197.5z"/><path fill="#D1D3D4" d="M470.2 571 355 482.4v19.1L500 613l140-107.7v-18.9L530.1 571c-17.6 13.5-42.2 13.5-59.9 0zM471.5 386.8h127.1c7.4 0 13.4-6 13.4-13.4s-6-13.4-13.4-13.4H471.5c-7.4 0-13.4 6-13.4 13.4-.1 7.4 6 13.4 13.4 13.4z"/><path fill="#2DBBA5" d="M471.5 378.4h127.1c7.4 0 13.4-6 13.4-13.4s-6-13.4-13.4-13.4H471.5c-7.4 0-13.4 6-13.4 13.4-.1 7.4 6 13.4 13.4 13.4z"/><path fill="#00A58C" d="M598.5 365h-127c-5 0-9.3-2.7-11.6-6.7-1.1 2-1.8 4.2-1.8 6.7 0 7.4 6 13.4 13.4 13.4h127.1c7.4 0 13.4-6 13.4-13.4 0-2.4-.7-4.7-1.8-6.7-2.4 4-6.7 6.7-11.7 6.7z"/><g><path fill="#D1D3D4" d="M401.5 442.2h197.1c7.4 0 13.4-6 13.4-13.4s-6-13.4-13.4-13.4H401.5c-7.4 0-13.4 6-13.4 13.4-.1 7.4 6 13.4 13.4 13.4z"/><path fill="#2DBBA5" d="M401.5 433.8h197.1c7.4 0 13.4-6 13.4-13.4s-6-13.4-13.4-13.4H401.5c-7.4 0-13.4 6-13.4 13.4-.1 7.4 6 13.4 13.4 13.4z"/><path fill="#00A58C" d="M598.5 420.4h-197c-5 0-9.3-2.7-11.6-6.7-1.1 2-1.8 4.2-1.8 6.7 0 7.4 6 13.4 13.4 13.4h197.1c7.4 0 13.4-6 13.4-13.4 0-2.4-.7-4.7-1.8-6.7-2.4 4-6.7 6.7-11.7 6.7z"/></g><g><path fill="#D1D3D4" d="M401.5 497.6h197.1c7.4 0 13.4-6 13.4-13.4s-6-13.4-13.4-13.4H401.5c-7.4 0-13.4 6-13.4 13.4-.1 7.4 6 13.4 13.4 13.4z"/><path fill="#2DBBA5" d="M401.5 489.2h197.1c7.4 0 13.4-6 13.4-13.4s-6-13.4-13.4-13.4H401.5c-7.4 0-13.4 6-13.4 13.4-.1 7.4 6 13.4 13.4 13.4z"/><path fill="#00A58C" d="M598.5 475.9h-197c-5 0-9.3-2.7-11.6-6.7-1.1 2-1.8 4.2-1.8 6.7 0 7.4 6 13.4 13.4 13.4h197.1c7.4 0 13.4-6 13.4-13.4 0-2.4-.7-4.7-1.8-6.7-2.4 3.9-6.7 6.7-11.7 6.7z"/></g></g></g></switch></svg>